<svg width="64" height="64" viewBox="0 0 64 64" fill="none" xmlns="http://www.w3.org/2000/svg">
<path d="M36.8268 7.62667C37.2801 6.82667 36.8268 5.76 35.8934 5.65333C28.9068 4.66667 21.7601 6.4 16.0534 10.6133C15.5468 11.0133 15.3868 11.76 15.7334 12.3467L23.7601 26.2667C24.2668 27.1467 25.5468 27.1467 26.0801 26.2667L36.8268 7.62667V7.62667ZM56.8001 22.2133C54.1868 15.6267 49.0134 10.32 42.5334 7.54667C41.9201 7.28 41.2001 7.54667 40.8534 8.13333L32.8268 22.0267C32.3201 22.88 32.9601 24 34.0001 24H55.5468C56.4801 24 57.1468 23.0667 56.8001 22.2133V22.2133ZM56.9868 26.6667H40.4534C39.4401 26.6667 38.7734 27.7867 39.3068 28.6667L50.6668 48.3733C51.1201 49.1733 52.2668 49.3067 52.8534 48.5867C57.4934 42.7733 59.4668 35.1733 58.3201 27.8133C58.2401 27.1467 57.6534 26.6667 56.9868 26.6667ZM11.1468 15.44C6.53343 21.28 4.53343 28.8267 5.6801 36.2133C5.7601 36.8533 6.34676 37.3333 7.01343 37.3333H23.5468C24.5601 37.3333 25.2268 36.2133 24.6934 35.3333L13.3334 15.6533C12.8534 14.8533 11.7068 14.72 11.1468 15.44ZM7.2001 41.7867C9.81343 48.3733 14.9868 53.68 21.4668 56.4533C22.0801 56.72 22.8001 56.4533 23.1468 55.8667L31.1734 41.9733C31.6801 41.0933 31.0401 39.9733 30.0268 39.9733H8.45343C7.5201 40 6.85343 40.9333 7.2001 41.7867V41.7867ZM28.0801 58.3733C35.0668 59.36 42.2134 57.6267 47.9201 53.4133C48.4534 53.0133 48.6134 52.24 48.2668 51.6533L40.2401 37.7333C39.7334 36.8533 38.4534 36.8533 37.9201 37.7333L27.1468 56.3733C26.6934 57.1733 27.1734 58.24 28.0801 58.3733V58.3733Z" fill="#FB8500"/>
</svg>
